<?xml version="1.0" standalone="no"?>
<!DOCTYPE svg PUBLIC "-//W3C//DTD SVG 20010904//EN"
 "http://www.w3.org/TR/2001/REC-SVG-20010904/DTD/svg10.dtd">
<svg version="1.0" xmlns="http://www.w3.org/2000/svg"
 width="640.000000pt" height="640.000000pt" viewBox="0 0 640.000000 640.000000"
 preserveAspectRatio="xMidYMid meet">
<metadata>
Created by potrace 1.14, written by Peter Selinger 2001-2017
</metadata>
<g transform="translate(0.000000,640.000000) scale(0.100000,-0.100000)"
fill="#000000" stroke="none">
<path d="M2969 6376 c-2 -2 -40 -6 -84 -10 -44 -3 -91 -8 -105 -10 -14 -3 -47
-7 -74 -11 -447 -56 -965 -267 -1367 -556 -221 -159 -467 -390 -600 -564 -13
-16 -26 -32 -29 -35 -3 -3 -26 -32 -51 -65 -319 -420 -539 -961 -604 -1485
-16 -133 -20 -206 -20 -400 0 -238 7 -333 36 -510 6 -36 13 -74 14 -85 2 -11
9 -42 15 -70 6 -27 13 -57 15 -65 52 -245 215 -651 348 -865 90 -145 185 -283
248 -360 111 -135 261 -294 379 -400 134 -121 367 -286 545 -387 312 -176 737
-323 1055 -363 25 -3 56 -8 70 -10 25 -5 91 -12 190 -20 78 -7 341 -7 435 0
71 5 132 11 280 31 176 23 446 97 656 180 95 37 335 152 419 200 100 58 301
197 405 281 96 76 342 313 400 384 11 13 38 47 60 74 22 28 42 52 45 55 25 22
198 281 250 372 44 77 168 332 175 358 0 3 15 41 32 85 29 73 77 216 88 261
28 109 74 322 79 366 4 31 8 64 10 75 28 143 28 726 1 833 -2 8 -7 33 -10 55
-3 23 -8 52 -10 65 -3 14 -8 41 -11 60 -3 19 -10 53 -16 75 -5 22 -11 47 -13
55 -19 92 -79 284 -132 420 -66 169 -140 314 -268 528 -122 204 -375 500 -576
674 -30 26 -67 59 -84 73 -49 43 -265 198 -335 241 -103 62 -104 63 -120 70
-8 4 -32 18 -52 31 -21 13 -38 20 -38 17 0 -4 -6 -1 -14 5 -68 56 -507 223
-676 257 -14 3 -34 8 -45 11 -23 8 -21 7 -100 22 -33 6 -71 13 -85 16 -24 5
-139 21 -225 31 -48 6 -501 15 -506 10z"/>
</g>
</svg>
